<mxfile host="app.diagrams.net" modified="2024-07-09T07:25:27.654Z" agent="Mozilla/5.0 (Macintosh; Intel Mac OS X 10.15; rv:127.0) Gecko/20100101 Firefox/127.0" etag="RillV5IZJ2CJ9jVJsup7" version="24.6.4" type="github">
  <diagram name="Page-1" id="8BF3PKnMfptFRbR6Tfph">
    <mxGraphModel dx="1803" dy="1028" grid="1" gridSize="10" guides="1" tooltips="1" connect="1" arrows="1" fold="1" page="1" pageScale="1" pageWidth="1100" pageHeight="850" math="0" shadow="0">
      <root>
        <mxCell id="0" />
        <mxCell id="1" parent="0" />
        <mxCell id="77kNSFqW6hVMuivZZqSJ-13" value="" style="group" vertex="1" connectable="0" parent="1">
          <mxGeometry x="318" y="30" width="482" height="530" as="geometry" />
        </mxCell>
        <mxCell id="77kNSFqW6hVMuivZZqSJ-1" value="" style="group" vertex="1" connectable="0" parent="77kNSFqW6hVMuivZZqSJ-13">
          <mxGeometry y="80" width="482" height="450" as="geometry" />
        </mxCell>
        <mxCell id="77kNSFqW6hVMuivZZqSJ-2" value="" style="rounded=1;whiteSpace=wrap;html=1;fillColor=#f5f5f5;strokeColor=#666666;fontColor=#333333;" vertex="1" parent="77kNSFqW6hVMuivZZqSJ-1">
          <mxGeometry width="476.8172043010753" height="450" as="geometry" />
        </mxCell>
        <mxCell id="77kNSFqW6hVMuivZZqSJ-3" value="Adapt &amp;amp; Align" style="shape=step;perimeter=stepPerimeter;whiteSpace=wrap;html=1;fixedSize=1;fontFamily=Rubik;fontSource=https%3A%2F%2Ffonts.googleapis.com%2Fcss%3Ffamily%3DRubik;fillColor=#fff2cc;strokeColor=#d6b656;fillStyle=cross-hatch;sketch=1;curveFitting=1;jiggle=2;" vertex="1" parent="77kNSFqW6hVMuivZZqSJ-1">
          <mxGeometry x="49.18367346938776" y="45" width="393.4693877551021" height="59.99999999999999" as="geometry" />
        </mxCell>
        <mxCell id="77kNSFqW6hVMuivZZqSJ-4" value="" style="rounded=1;whiteSpace=wrap;html=1;fontFamily=Rubik;fontSource=https%3A%2F%2Ffonts.googleapis.com%2Fcss%3Ffamily%3DRubik;fillColor=#fff2cc;strokeColor=#d6b656;fillStyle=cross-hatch;sketch=1;curveFitting=1;jiggle=2;" vertex="1" parent="77kNSFqW6hVMuivZZqSJ-1">
          <mxGeometry x="29.510204081632654" y="119.99999999999999" width="432.81632653061234" height="284.99999999999994" as="geometry" />
        </mxCell>
        <mxCell id="77kNSFqW6hVMuivZZqSJ-5" value="Prompt Engineering" style="rounded=1;whiteSpace=wrap;html=1;fontFamily=Rubik;fontSource=https%3A%2F%2Ffonts.googleapis.com%2Fcss%3Ffamily%3DRubik;fillColor=#fff2cc;strokeColor=#d6b656;fillStyle=cross-hatch;sketch=1;curveFitting=1;jiggle=2;" vertex="1" parent="77kNSFqW6hVMuivZZqSJ-1">
          <mxGeometry x="49.18367346938776" y="135" width="186.89795918367346" height="74.99999999999999" as="geometry" />
        </mxCell>
        <mxCell id="77kNSFqW6hVMuivZZqSJ-6" value="Fine Tuning" style="rounded=1;whiteSpace=wrap;html=1;fontFamily=Rubik;fontSource=https%3A%2F%2Ffonts.googleapis.com%2Fcss%3Ffamily%3DRubik;fillColor=#fff2cc;strokeColor=#d6b656;fillStyle=cross-hatch;sketch=1;curveFitting=1;jiggle=2;" vertex="1" parent="77kNSFqW6hVMuivZZqSJ-1">
          <mxGeometry x="49.18367346938776" y="224.99999999999997" width="186.89795918367346" height="74.99999999999999" as="geometry" />
        </mxCell>
        <mxCell id="77kNSFqW6hVMuivZZqSJ-7" value="Align with Human Feedback" style="rounded=1;whiteSpace=wrap;html=1;fontFamily=Rubik;fontSource=https%3A%2F%2Ffonts.googleapis.com%2Fcss%3Ffamily%3DRubik;fillColor=#fff2cc;strokeColor=#d6b656;fillStyle=cross-hatch;sketch=1;curveFitting=1;jiggle=2;" vertex="1" parent="77kNSFqW6hVMuivZZqSJ-1">
          <mxGeometry x="49.18367346938776" y="315" width="186.89795918367346" height="74.99999999999999" as="geometry" />
        </mxCell>
        <mxCell id="77kNSFqW6hVMuivZZqSJ-8" value="Evaluate" style="rounded=1;whiteSpace=wrap;html=1;fontFamily=Rubik;fontSource=https%3A%2F%2Ffonts.googleapis.com%2Fcss%3Ffamily%3DRubik;fillColor=#fff2cc;strokeColor=#d6b656;fillStyle=cross-hatch;sketch=1;curveFitting=1;jiggle=2;" vertex="1" parent="77kNSFqW6hVMuivZZqSJ-1">
          <mxGeometry x="265.5918367346939" y="135" width="177.0612244897959" height="254.99999999999997" as="geometry" />
        </mxCell>
        <mxCell id="77kNSFqW6hVMuivZZqSJ-9" value="" style="shape=flexArrow;endArrow=classic;html=1;rounded=0;entryX=0.5;entryY=0;entryDx=0;entryDy=0;exitX=0.5;exitY=0;exitDx=0;exitDy=0;flowAnimation=1;fillColor=#f8cecc;strokeColor=#b85450;fillStyle=dashed;" edge="1" parent="77kNSFqW6hVMuivZZqSJ-1" source="77kNSFqW6hVMuivZZqSJ-8" target="77kNSFqW6hVMuivZZqSJ-5">
          <mxGeometry width="50" height="50" relative="1" as="geometry">
            <mxPoint x="363.95918367346945" y="194.99999999999997" as="sourcePoint" />
            <mxPoint x="363.95918367346945" y="29.999999999999996" as="targetPoint" />
            <Array as="points">
              <mxPoint x="324.6122448979592" y="104.99999999999999" />
              <mxPoint x="265.5918367346939" y="104.99999999999999" />
              <mxPoint x="186.89795918367346" y="104.99999999999999" />
            </Array>
          </mxGeometry>
        </mxCell>
        <mxCell id="77kNSFqW6hVMuivZZqSJ-10" value="" style="shape=flexArrow;endArrow=classic;html=1;rounded=0;fillColor=#f8cecc;strokeColor=#b85450;fillStyle=dashed;flowAnimation=1;exitX=0.5;exitY=1;exitDx=0;exitDy=0;" edge="1" parent="77kNSFqW6hVMuivZZqSJ-1" source="77kNSFqW6hVMuivZZqSJ-6" target="77kNSFqW6hVMuivZZqSJ-8">
          <mxGeometry width="50" height="50" relative="1" as="geometry">
            <mxPoint x="137.71428571428572" y="299.99999999999994" as="sourcePoint" />
            <mxPoint x="236.08163265306123" y="224.99999999999997" as="targetPoint" />
            <Array as="points">
              <mxPoint x="206.5714285714286" y="374.99999999999994" />
              <mxPoint x="285.26530612244903" y="389.99999999999994" />
            </Array>
          </mxGeometry>
        </mxCell>
        <mxCell id="77kNSFqW6hVMuivZZqSJ-11" value="" style="whiteSpace=wrap;html=1;fillColor=none;strokeWidth=5;strokeColor=#FF9999;sketch=1;curveFitting=1;jiggle=2;rounded=1;shadow=0;" vertex="1" parent="77kNSFqW6hVMuivZZqSJ-1">
          <mxGeometry x="41.462365591397855" y="210" width="207.31182795698925" height="100" as="geometry" />
        </mxCell>
        <mxCell id="77kNSFqW6hVMuivZZqSJ-12" value="&lt;font data-font-src=&quot;https://fonts.googleapis.com/css?family=Rubik&quot; face=&quot;Rubik&quot; style=&quot;font-size: 24px;&quot;&gt;GenAI Project Lifecycle&lt;/font&gt;" style="text;html=1;align=center;verticalAlign=middle;resizable=0;points=[];autosize=1;strokeColor=none;fillColor=none;" vertex="1" parent="77kNSFqW6hVMuivZZqSJ-13">
          <mxGeometry x="95.88172043010753" width="280" height="40" as="geometry" />
        </mxCell>
        <mxCell id="77kNSFqW6hVMuivZZqSJ-17" value="" style="edgeStyle=orthogonalEdgeStyle;rounded=0;orthogonalLoop=1;jettySize=auto;html=1;" edge="1" parent="1" source="77kNSFqW6hVMuivZZqSJ-15" target="77kNSFqW6hVMuivZZqSJ-16">
          <mxGeometry relative="1" as="geometry">
            <Array as="points">
              <mxPoint x="460" y="1040" />
              <mxPoint x="100" y="1040" />
            </Array>
          </mxGeometry>
        </mxCell>
        <mxCell id="77kNSFqW6hVMuivZZqSJ-15" value="&lt;div align=&quot;left&quot; class=&quot;cds-1719 css-0 cds-1721 cds-grid-item cds-1766&quot;&gt;&lt;div class=&quot;cds-1719 css-0 cds-1720 cds-1721 cds-grid-item cds-1766&quot;&gt;&lt;div class=&quot;cds-1719 css-0 cds-1721 cds-grid-item&quot;&gt;&lt;div class=&quot;css-ibyw7c&quot; data-testid=&quot;instructor-note-body&quot;&gt;&lt;font data-font-src=&quot;https://fonts.googleapis.com/css?family=Rubik&quot; face=&quot;Rubik&quot;&gt;Reinforcement learning and LLM-powered applications&lt;/font&gt;&lt;/div&gt;&lt;div&gt;&lt;h3 tabindex=&quot;-1&quot; class=&quot;css-13hhzop&quot;&gt;&lt;font data-font-src=&quot;https://fonts.googleapis.com/css?family=Rubik&quot; face=&quot;Rubik&quot;&gt;Learning Objectives&lt;/font&gt;&lt;/h3&gt;&lt;hr aria-hidden=&quot;true&quot; class=&quot;cds-1959 cds-Divider-dark css-yc753g&quot;&gt;&lt;ul&gt;&lt;li data-collapsible=&quot;false&quot;&gt;&lt;font data-font-src=&quot;https://fonts.googleapis.com/css?family=Rubik&quot; face=&quot;Rubik&quot;&gt;Describe how RLHF uses human feedback to improve the performance and alignment of large language models&lt;/font&gt;&lt;/li&gt;&lt;li data-collapsible=&quot;false&quot;&gt;&lt;font data-font-src=&quot;https://fonts.googleapis.com/css?family=Rubik&quot; face=&quot;Rubik&quot;&gt;Explain how data gathered from human labelers is used to train a reward model for RLHF&lt;/font&gt;&lt;/li&gt;&lt;li data-collapsible=&quot;false&quot;&gt;&lt;font data-font-src=&quot;https://fonts.googleapis.com/css?family=Rubik&quot; face=&quot;Rubik&quot;&gt;Define chain-of-thought prompting and describe how it can be used to improve LLMs reasoning and planning abilities&lt;/font&gt;&lt;/li&gt;&lt;li data-collapsible=&quot;true&quot;&gt;&lt;font data-font-src=&quot;https://fonts.googleapis.com/css?family=Rubik&quot; face=&quot;Rubik&quot;&gt;Discuss the challenges that LLMs face with knowledge cut-offs, and explain how information retrieval and augmentation techniques can overcome these challenges&lt;/font&gt;&lt;/li&gt;&lt;/ul&gt;&lt;/div&gt;&lt;/div&gt;&lt;/div&gt;&lt;/div&gt;" style="whiteSpace=wrap;html=1;align=left;" vertex="1" parent="1">
          <mxGeometry x="240" y="680" width="440" height="240" as="geometry" />
        </mxCell>
        <mxCell id="77kNSFqW6hVMuivZZqSJ-14" style="edgeStyle=orthogonalEdgeStyle;rounded=0;orthogonalLoop=1;jettySize=auto;html=1;entryX=0.5;entryY=0;entryDx=0;entryDy=0;" edge="1" parent="1" source="77kNSFqW6hVMuivZZqSJ-7" target="77kNSFqW6hVMuivZZqSJ-15">
          <mxGeometry relative="1" as="geometry">
            <mxPoint x="460.6326530612246" y="650" as="targetPoint" />
          </mxGeometry>
        </mxCell>
        <mxCell id="77kNSFqW6hVMuivZZqSJ-16" value="&lt;div align=&quot;center&quot;&gt;&lt;font data-font-src=&quot;https://fonts.googleapis.com/css?family=Rubik&quot; face=&quot;Rubik&quot;&gt;Re-Inforcement Learning from Human Feedback&lt;/font&gt;&lt;/div&gt;" style="whiteSpace=wrap;html=1;align=center;" vertex="1" parent="1">
          <mxGeometry y="1160" width="200" height="40" as="geometry" />
        </mxCell>
      </root>
    </mxGraphModel>
  </diagram>
</mxfile>
